<?xml version="1.0" encoding="UTF-8" standalone="no"?>
<svg
   viewBox="0 0 512 512"
   version="1.1"
   id="svg1"
   xmlns="http://www.w3.org/2000/svg"
   xmlns:svg="http://www.w3.org/2000/svg">
  <defs
     id="defs1" />
  <!--!Font Awesome Free 6.7.2 by @fontawesome - https://fontawesome.com License - https://fontawesome.com/license/free Copyright 2025 Fonticons, Inc.-->
  <path
     d="m 195.54244,102.6834 c 0,-32.30701 27.39482,-88.513648 60.45755,-88.513648 34.00737,0 60.45755,56.206638 60.45755,88.513648 v 62.63024 l 167.95867,111.94097 c 8.40737,5.57342 13.41402,15.01991 13.41402,25.12766 v 53.56162 c 0,10.29669 -10.10775,17.57048 -19.9321,14.35868 L 316.45754,316.45754 v 75.57197 l 54.41181,40.80884 c 3.7786,2.83395 6.04576,7.36827 6.04576,12.09152 v 39.67526 c 0,7.36827 -5.95129,13.2251 -13.2251,13.2251 -1.22803,0 -2.45608,-0.18893 -3.68412,-0.47232 l -104.0059,-29.75645 -104.0059,29.75645 c -1.22804,0.37785 -2.45609,0.47232 -3.68412,0.47232 -7.36827,0 -13.2251,-5.95129 -13.2251,-13.2251 v -39.67526 c 0,-4.72325 2.26716,-9.25757 6.04576,-12.09152 l 54.41181,-40.80884 V 316.45754 L 34.101854,370.30257 c -9.824353,3.2118 -19.932102,-4.06199 -19.932102,-14.35868 v -53.56162 c 0,-10.10775 5.006642,-19.55424 13.414021,-25.12766 L 195.54244,165.31364 Z"
     id="path1"
     style="fill:#ffff00;stroke:#000000;stroke-width:28.3395;stroke-dasharray:none;stroke-opacity:1" />
</svg>
